<svg baseProfile="full" height="100%" version="1.1" viewBox="0 0 24 24" width="100%" xmlns="http://www.w3.org/2000/svg"><defs /><path d="M 13.444,8.256 C 13.044,8.468 12.9,8.818 12.9,9.786 C 12.9,9.786 13.102,9.591999999999999 13.399000000000001,9.482999999999999 A 2.01,2.01 0.0 0,0 13.911000000000001,9.207999999999998 C 14.249,8.960999999999999 14.296000000000001,8.645999999999999 14.296000000000001,8.111999999999998 C 14.296000000000001,8.111999999999998 13.743,8.095999999999998 13.444,8.255999999999998 L 13.444,8.256 M 11.095,8.485 C 10.775,8.770999999999999 10.677000000000001,9.224 10.677000000000001,9.224 L 9.599000000000002,13.365 L 8.71,9.97 C 8.623000000000001,9.615 8.464,9.162 8.215000000000002,8.863000000000001 C 7.905000000000002,8.485000000000001 7.271000000000002,8.462000000000002 7.200000000000002,8.462000000000002 C 7.132000000000002,8.462000000000002 6.491000000000002,8.485000000000001 6.174000000000002,8.869000000000002 C 5.928000000000003,9.172000000000002 5.7680000000000025,9.620000000000001 5.681000000000002,9.977000000000002 L 4.792000000000002,13.372000000000002 L 3.7260000000000018,9.225000000000001 C 3.7260000000000018,9.225000000000001 3.6340000000000017,8.766000000000002 3.3080000000000016,8.486 C 2.7790000000000017,8.021 1.9940000000000015,8.119 1.9940000000000015,8.119 L 4.042000000000002,15.883 C 4.042000000000002,15.883 4.719000000000001,15.934999999999999 5.057000000000001,15.757 C 5.498000000000001,15.533 5.716000000000001,15.356 5.9860000000000015,14.294 C 6.227000000000001,13.354000000000001 6.8980000000000015,10.59 6.960000000000002,10.389000000000001 C 6.989000000000002,10.291 7.030000000000002,10.057 7.201000000000001,10.057 C 7.380000000000002,10.057 7.415000000000002,10.286 7.442000000000001,10.389000000000001 C 7.506000000000001,10.584000000000001 8.171000000000001,13.354000000000001 8.418000000000001,14.294 C 8.686000000000002,15.349 8.899000000000001,15.521 9.347000000000001,15.757000000000001 C 9.685,15.935000000000002 10.362000000000002,15.883000000000001 10.362000000000002,15.883000000000001 L 12.410000000000002,8.124 C 12.408000000000001,8.124 11.621000000000002,8.025 11.095000000000002,8.485000000000001 L 11.095,8.485 M 14.296000000000001,9.385 C 14.296000000000001,9.385 14.167000000000002,9.58 13.876000000000001,9.751999999999999 C 13.688,9.855999999999998 13.509,9.93 13.314000000000002,10.023 C 12.991000000000001,10.177 12.900000000000002,10.355 12.900000000000002,10.618 L 12.900000000000002,15.884 C 12.900000000000002,15.884 13.422000000000002,15.947000000000001 13.754000000000001,15.780000000000001 C 14.190000000000001,15.558000000000002 14.287,15.345 14.295000000000002,14.376000000000001 L 14.295000000000002,9.385 L 14.296000000000001,9.385 M 19.408,12.017 L 22.007,8.142 C 22.007,8.142 20.911,7.952999999999999 20.366,8.450999999999999 C 20.016,8.765999999999998 19.628,9.335999999999999 19.628,9.335999999999999 L 18.676000000000002,10.721999999999998 C 18.623,10.790999999999999 18.572000000000003,10.871999999999998 18.476000000000003,10.871999999999998 C 18.377000000000002,10.871999999999998 18.315,10.796999999999999 18.274,10.721999999999998 L 17.312,9.339999999999998 C 17.312,9.339999999999998 16.927,8.771999999999998 16.572000000000003,8.455999999999998 C 16.032000000000004,7.956999999999998 14.931000000000003,8.145999999999997 14.931000000000003,8.145999999999997 L 17.534000000000002,12.010999999999997 L 14.931000000000003,15.868999999999998 C 14.931000000000003,15.868999999999998 16.077,16.017999999999997 16.619000000000003,15.518999999999998 C 16.969000000000005,15.203999999999999 17.307000000000002,14.681999999999999 17.307000000000002,14.681999999999999 L 18.257,13.299 C 18.310000000000002,13.231 18.361,13.152 18.457,13.152 C 18.557000000000002,13.152 18.618000000000002,13.226999999999999 18.659000000000002,13.299 L 19.611000000000004,14.681999999999999 C 19.611000000000004,14.681999999999999 19.966000000000005,15.191999999999998 20.311000000000003,15.518999999999998 C 20.849000000000004,16.017999999999997 21.978000000000005,15.868999999999998 21.978000000000005,15.868999999999998 L 19.408000000000005,12.016999999999998 L 19.408,12.017" /></svg>